<?xml version="1.0" encoding="utf-8"?>
<!-- Generator: Adobe Illustrator 18.1.1, SVG Export Plug-In . SVG Version: 6.00 Build 0)  -->
<svg version="1.1" id="Layer_1" xmlns="http://www.w3.org/2000/svg" xmlns:xlink="http://www.w3.org/1999/xlink" x="0px" y="0px"
	 width="324px" height="292.2px" viewBox="0 0 324 292.2" style="enable-background:new 0 0 324 292.2;" xml:space="preserve">
<style type="text/css">
	.st0{fill:#E92731;}
	.st1{fill:#3B8CCB;}
	.st2{fill:#009444;}
	.st3{fill:#FBB040;}
</style>
<path class="st0" d="M237.8,140.7c0,0-8.8-12,13.2-20.8c19.2-7.7,50.2,10.4,63.2,0.6c0,0,11.7-10.7,1.7-16.7
	c-10-6-45.1,2.9-45.1,2.9l-49.2,16.7l0.9,23.6L237.8,140.7z"/>
<path class="st0" d="M228,152.2c0,0,43.1,16.4,45.3-2.1c0,0,2.8-18.1-22.5-13.2c0,0-25.3,8.6-33.6,6.3l-0.1,8.9L228,152.2z"/>
<path class="st1" d="M175.6,147.6c0,0,3.4-52,14.5-69.3c2.6-4,7.3-5.9,10.4-4.2c2.9,1.6,5.9,5.5,2.9,14.9c-5,16-23.5,57.2-23.5,57.2
	L175.6,147.6z"/>
<path class="st1" d="M122.1,158.7c0,0,23.8-17.6-4.5-28.6c-26.9-10.5-68.3-6.3-82.5-4.4c-4.4,0.6-8.8,0.5-13.2-0.2
	c-7.8-1.3-18.4-4.5-18-12c0,0,1.8-24.4,42-11.8c1.7,0.5,3.5,1,5.3,1.4l49.2,10c8.2,1.7,0,0,25,5.1l38.7,11.8c7.2,2.1-9.4,8-8.6,15.4
	C156.4,152.8,122.9,172.1,122.1,158.7z"/>
<path class="st1" d="M155.2,156c0,0-56.5,45.1-82.2,46.2c-6,0.2-11.3-4.5-11.6-10.5c-0.4-5.7,1.6-13.5,13.4-18.4
	c20.2-8.4,76-21.9,76-21.9L155.2,156z"/>
<path class="st2" d="M272.3,193.4c0,0,6.9-12.2-22.7-19.6c0,0-32.1-15.8-18.8-24.7c9.3-6.2,4.1-13.6,0.2-17.4
	c-3.3-3.2-2.4-8.9,1.9-10.3c1.9-0.6,4.4-0.8,7.9-0.2c13.8,2.4,41.4-18.3,27.6-21c-13.8-2.7-35.6,16.1-35.6,16.1s-14.6,4.9-1.9-6.2
	c0,0,18.2-10.7,12.1-21.4s-23.4,16.2-23.4,16.2s-14.2,1.5-5.4-12.6c8.8-14.1,23.9-31.7,13.3-40.2S204,94.4,204,94.4
	s-11.9,21.2-20.3-2.1c0,0,6.3-41.8-7.6-44.6c-13.8-2.7-1.7,44.1-1.7,44.1s-3.3,12.2-12.6,3.1c-7.4-7.3-23.2-35-29.3-45.8
	c-2.2-3.9-6-6.8-10.4-7.3c-4-0.5-8.1,0.9-8.5,8.5c-0.8,15.1,41.1,51.7,41.1,51.7s8.3,7.7-6.2,10c0,0-11.2-5.3-18.5-16.4
	c-7.3-11-25.1-2.2-15.2,7.6c6,6,12.9,9.8,17.4,11.9c4.5,2.1,8.2,5.7,10.1,10.3c1.5,3.9,1.8,8.2-2.3,11.3c0,0-20.3-5.4-21.6,3
	c-1.4,8.4,2.1,10.7,14.1,8.5c11.9-2.1,5.3,13.6-7.2,14.8s-16.3,20.5,2.4,13.6l18.8-11.7c0,0,10,1.4,0.9,10.3
	c-9.1,8.9-41.6,34.4-26.8,39.1c14.8,4.7,38.7-37.6,38.7-37.6s4.8-1.2,4.1,6.5s-8.6,22.2,2.4,13.6c0,0,7.2-20.7,14.7-16.6
	s2.2,32.9,2.2,32.9s-2.2,37.1,10.9,29.6c3.3-1.9,5.2-5.4,5.4-9.1c0.3-6.3,0.3-20.5-1.1-51.6c0,0,2.1-18,8.7-0.6s13.8,35.3,20,28.6
	c6.2-6.7-13.5-35-13.5-35s-3.7-13.9,19.4-2.4C255.3,183.9,261.8,210.7,272.3,193.4z"/>
<path class="st3" d="M188.4,180.5c1.3-4.3,2.2-12.3-1.7-25.6c0,0,0.7-17.5,14.6-6.8c13.8,10.7,19.8-0.2,13.3-4.3
	c-6.6-4.2-15.6-6.1-12.4-9.2c3.2-3.2,16.9-7.3,8.6-16.4c0,0-3.2-5.9-16,4.3c0,0-4.2,3.5-7.3-5.8c-1.3-4-4.5-7.1-8.6-7.8
	c-5.2-1-11.9,1.4-16.6,16.5c0,0-4.7,15.2-7,16.7c-11,7-2.8,21.8,20.5,6.9c0,0,5-0.5,2,10.6c-2.6,9.7-5.3,27.4,4,26.6
	C184.8,185.9,187.4,183.5,188.4,180.5z"/>
<g>
</g>
<g>
</g>
<g>
</g>
<g>
</g>
<g>
</g>
<g>
</g>
</svg>
